<svg width="16" height="19" viewBox="0 0 16 19" fill="none" xmlns="http://www.w3.org/2000/svg">
<path d="M15.4188 0.913273L12.1688 0.0226664C11.8157 -0.0738159 11.4532 0.145125 11.3095 0.538476L9.8095 4.69464C9.67825 5.0583 9.76575 5.48505 10.0251 5.73368L11.9188 7.57427C10.7939 10.4205 8.82827 12.788 6.38145 14.1499L4.83148 11.9011C4.61898 11.5931 4.26274 11.4892 3.95649 11.6451L0.456566 13.4263C0.122198 13.6007 -0.0621732 14.0312 0.0190751 14.4505L0.76906 18.3098C0.847183 18.7106 1.14718 19 1.50029 19C9.50326 19 16 11.3 16 1.78161C16 1.366 15.7594 1.00604 15.4188 0.913273Z" fill="#47A0ED"/>
</svg>
