<svg width="29" height="28" viewBox="0 0 29 28" fill="none" xmlns="http://www.w3.org/2000/svg">
<ellipse cx="14.5" cy="14" rx="13.5" ry="14" transform="rotate(147 14.5 14)" fill="#004F93"/>
<path d="M3.17794 21.3526C2.17662 19.8107 1.47795 18.0937 1.12184 16.2997C0.765724 14.5057 0.759132 12.6697 1.10244 10.8967C1.44575 9.12364 2.13223 7.44823 3.1227 5.9661C4.11316 4.48398 5.38821 3.22418 6.87505 2.25861C8.36188 1.29305 10.0314 0.640649 11.7882 0.338646C13.5451 0.0366446 15.3548 0.0909617 17.1142 0.498496C18.8736 0.90603 20.5482 1.6588 22.0423 2.71383C23.5364 3.76885 24.8207 5.10548 25.822 6.64738L14.5 14L3.17794 21.3526Z" fill="black"/>
</svg>
