<svg width="29" height="28" viewBox="0 0 29 28" fill="none" xmlns="http://www.w3.org/2000/svg">
<ellipse cx="14.5" cy="14" rx="13.5" ry="14" transform="rotate(147 14.5 14)" fill="#EBC43A"/>
<path d="M3.17794 21.3526C2.17662 19.8107 1.47796 18.0938 1.12184 16.2997C0.765726 14.5057 0.759135 12.6697 1.10244 10.8967C1.44575 9.12365 2.13224 7.44824 3.1227 5.96612C4.11317 4.484 5.38822 3.22419 6.87505 2.25863C8.36188 1.29307 10.0314 0.640665 11.7882 0.338663C13.5451 0.036661 15.3549 0.0909781 17.1142 0.498512C18.8736 0.906046 20.5482 1.65882 22.0423 2.71384C23.5364 3.76887 24.8207 5.10549 25.822 6.64739L14.5 14L3.17794 21.3526Z" fill="black"/>
</svg>
