<svg width="29" height="28" viewBox="0 0 29 28" fill="none" xmlns="http://www.w3.org/2000/svg">
<ellipse cx="14.5" cy="14" rx="13.5" ry="14" transform="rotate(-27 14.5 14)" fill="black"/>
<path d="M26.5286 7.8711C27.3633 9.50922 27.8786 11.2898 28.0453 13.1113C28.2119 14.9327 28.0265 16.7593 27.4998 18.4867C26.973 20.2142 26.1152 21.8086 24.9752 23.1791C23.8352 24.5496 22.4355 25.6692 20.8559 26.4741C19.2763 27.2789 17.5477 27.7532 15.7689 27.8699C13.9901 27.9867 12.1959 27.7435 10.4888 27.1543C8.78163 26.565 7.19495 25.6414 5.81933 24.4359C4.4437 23.2305 3.30609 21.767 2.47142 20.1288L14.5 14L26.5286 7.8711Z" fill="white"/>
</svg>
