<svg fill="none" xmlns="http://www.w3.org/2000/svg" viewBox="0 0 13 12"><path d="M6.5 0a6.8 6.8 0 00-4.6 1.75A5.76 5.76 0 000 6c0 1.59.68 3.11 1.9 4.23a6.8 6.8 0 004.6 1.76 6.8 6.8 0 004.6-1.76A5.76 5.76 0 0013 6c0-1.59-.68-3.11-1.9-4.24A6.8 6.8 0 006.5 0zm2.1 8.21c0 .23.11.42.27.44.16.02.34-.15.42-.4l.14.05c.25.13.45.33.56.57.11.24.13.51.05.76-.05.23-.19.43-.37.58a1.2 1.2 0 01-.68.25c-.35-.8-1.52.04-2.57-.15a1.43 1.43 0 01-.59-.28c-.16-.14-.3-.31-.37-.5.86-.08 2.06-1.16 3.15-1.32zM5.79 7.5c.32 0 .63-.1.87-.3.24-.2.4-.47.44-.76.16.18.23.4.23.62-.01.22-.11.44-.28.6-.09.07-.2.13-.31.16a.91.91 0 01-.7-.09.82.82 0 01-.25-.23zM7.94 7c.3.25 2.17-.05 2.55.72-.69-.13-2.13.4-2.5-.72h-.05zm-.91-3.37v.18c-.47-.52-.96-.72-1.17-.38-.2.33.73.74.55 1.25-.17.51-.91.37-1.35 1.07-.44.7-.36 1.6.9 2.44-.43-.04-.83-.2-1.15-.45a2 2 0 01-.7-.95c-.28-.8-.06-1.5-.56-1.64-.66-.19-1.38.65-1.38 1.37-.91-.84.03-1.9-.87-2.78a5.52 5.52 0 012.91-2.6A6.15 6.15 0 018.26 1c-.4.34-.7.75-.92 1.2-.21.45-.32.94-.31 1.44z" fill="#6caeff"/></svg>