<?xml version="1.0" standalone="no"?>
<!DOCTYPE svg PUBLIC "-//W3C//DTD SVG 20010904//EN"
 "http://www.w3.org/TR/2001/REC-SVG-20010904/DTD/svg10.dtd">
<svg version="1.0" xmlns="http://www.w3.org/2000/svg"
 width="3334.000000pt" height="1859.000000pt" viewBox="0 0 3334.000000 1859.000000"
 preserveAspectRatio="xMidYMid meet">

<g transform="translate(0.000000,1859.000000) scale(0.100000,-0.100000)"
fill="#000000" stroke="none">
<path d="M10125 14103 l-180 -3 -29 -131 c-24 -112 -72 -245 -346 -952 -251
-649 -345 -880 -447 -1097 l-129 -275 265 -7 c145 -4 267 -6 269 -3 2 2 24 97
48 212 35 167 57 243 111 386 l68 177 390 0 390 0 92 -223 c58 -142 106 -278
133 -377 23 -85 45 -158 49 -163 4 -4 161 -6 349 -5 l342 3 -116 200 c-114
195 -125 219 -484 1085 -285 687 -373 910 -394 995 -15 61 -31 127 -37 148
l-10 37 -77 -2 c-42 -2 -158 -4 -257 -5z m144 -1018 c63 -162 112 -297 110
-299 -2 -2 -111 -7 -241 -10 -198 -6 -238 -5 -238 6 0 8 34 95 76 193 41 99
96 231 122 293 25 61 48 112 51 112 4 0 57 -133 120 -295z"/>
<path d="M7226 14058 c2 -18 18 -157 34 -308 l30 -274 0 -628 0 -627 -30 -253
c-16 -139 -32 -271 -35 -294 l-6 -41 323 -9 c463 -13 655 -10 768 10 207 37
367 114 490 236 135 133 190 277 190 495 0 454 -184 675 -629 757 -96 18 -154
22 -339 22 l-222 0 2 280 3 281 245 -3 c229 -4 438 -24 686 -67 l32 -5 6 192
c4 106 9 210 12 231 l6 37 -785 0 -786 0 5 -32z m965 -1323 c123 -32 209 -90
252 -170 19 -34 22 -56 22 -145 0 -225 -63 -323 -249 -385 -88 -29 -215 -43
-331 -35 l-80 5 -3 367 -2 367 32 5 c72 12 107 14 200 11 53 -2 125 -11 159
-20z"/>
<path d="M14060 14083 c0 -5 9 -100 19 -213 16 -171 20 -330 26 -965 l6 -760
-26 -245 c-14 -135 -25 -248 -25 -252 0 -5 147 -8 326 -8 l326 0 -6 28 c-3 15
-19 122 -36 237 -29 203 -30 220 -28 520 l3 309 451 -549 451 -550 314 3 c173
1 332 3 355 5 l41 2 -564 638 -565 639 20 21 c10 12 241 267 513 567 272 300
500 553 508 563 13 16 -5 17 -295 17 l-309 0 -90 -128 c-63 -89 -202 -250
-460 -534 l-370 -408 -3 320 -2 320 35 209 c19 115 35 212 35 215 0 3 -146 6
-325 6 -179 0 -325 -3 -325 -7z"/>
<path d="M1910 13181 l0 -903 73 -67 c258 -241 483 -433 676 -578 108 -81 433
-305 437 -300 1 1 4 435 8 964 l7 961 -78 43 c-129 71 -341 198 -461 276 -168
111 -479 347 -644 491 -17 14 -18 -29 -18 -887z"/>
<path d="M11594 14043 c25 -153 48 -463 56 -759 16 -563 -11 -1390 -50 -1559
-5 -22 -10 -46 -10 -52 0 -10 71 -13 320 -13 176 0 320 2 320 5 0 3 -14 116
-32 253 -29 226 -32 271 -32 537 l-1 290 461 3 461 2 6 -82 c24 -297 -5 -706
-63 -915 -11 -40 -20 -77 -20 -83 0 -7 116 -10 336 -10 315 0 335 1 330 18 -3
9 -14 72 -25 138 -38 232 -44 417 -38 1153 5 681 5 700 31 886 14 105 26 198
26 208 0 16 -22 17 -320 17 l-321 0 6 -32 c29 -174 46 -385 52 -630 l6 -278
-460 0 -460 0 -7 73 c-8 97 9 437 29 567 14 89 41 216 61 283 5 16 -15 17
-331 17 l-337 0 6 -37z"/>
<path d="M1652 9319 c-1 -1303 0 -2369 4 -2369 26 0 425 234 619 363 754 504
1502 1294 1967 2077 l68 114 -2 284 -3 284 -190 72 c-930 355 -1652 794 -2320
1413 l-141 130 -2 -2368z"/>
<path d="M8720 10630 c-342 -18 -693 -78 -1071 -185 -213 -60 -313 -100 -340
-133 -18 -24 -20 -35 -15 -92 9 -83 132 -823 146 -872 15 -52 51 -78 112 -78
l49 0 130 125 c293 281 615 428 1041 474 139 16 360 13 443 -4 296 -62 521
-260 594 -524 59 -212 44 -463 -39 -656 -54 -125 -168 -256 -288 -329 -151
-92 -513 -197 -807 -236 -128 -16 -504 -50 -561 -50 -29 0 -55 -4 -58 -9 -3
-5 1 -150 9 -322 8 -173 15 -339 15 -370 l0 -56 523 1 c568 1 611 -2 862 -61
222 -52 359 -124 495 -262 185 -187 261 -404 263 -746 1 -225 -32 -377 -121
-550 -38 -74 -64 -107 -147 -190 -106 -106 -183 -158 -315 -212 -216 -89 -603
-143 -883 -123 -265 19 -463 73 -687 186 -198 100 -342 214 -540 427 -68 72
-138 140 -157 151 -42 23 -91 15 -124 -20 -22 -23 -27 -52 -66 -352 -23 -180
-48 -367 -54 -417 -11 -78 -10 -97 4 -147 26 -85 79 -132 245 -217 467 -237
911 -349 1487 -376 150 -7 462 8 615 31 532 78 993 311 1355 685 376 388 543
827 505 1328 -50 653 -382 1111 -996 1371 -65 28 -127 54 -137 58 -15 6 -5 16
55 57 360 246 581 522 664 829 65 245 54 578 -28 835 -126 397 -403 687 -812
849 -334 134 -880 206 -1366 182z"/>
<path d="M28406 10035 c-27 -267 -47 -488 -44 -490 3 -3 435 46 961 110 525
63 958 115 961 115 3 0 6 -845 6 -1877 l0 -1878 -94 -740 c-52 -407 -93 -741
-92 -742 2 -2 308 -2 682 -1 l679 3 -86 725 -86 725 -11 1885 c-7 1036 -8
1888 -4 1892 4 4 409 -45 901 -108 491 -63 895 -113 897 -111 2 2 -21 216 -51
475 -30 259 -55 478 -55 486 0 14 -223 16 -2258 16 l-2258 0 -48 -485z"/>
<path d="M12080 10501 c0 -5 9 -69 20 -143 47 -319 74 -625 91 -1048 14 -337
6 -2360 -10 -2780 -24 -609 -74 -1558 -100 -1885 -4 -55 -7 -101 -5 -103 2 -3
2809 -21 3395 -22 l245 0 13 383 c6 210 17 426 22 481 6 54 8 101 5 103 -3 3
-90 -11 -193 -31 -633 -121 -1199 -177 -1945 -193 l-318 -6 0 1061 0 1062 88
0 c166 0 938 -46 1587 -95 182 -14 336 -25 343 -25 9 0 12 103 12 483 l0 484
-52 -4 c-29 -2 -453 -26 -943 -53 -489 -27 -923 -52 -962 -55 l-73 -6 0 842 0
842 553 -6 c917 -10 1428 -59 1787 -173 49 -15 76 -20 81 -13 26 43 45 657 25
842 l-8 67 -1829 0 c-1078 0 -1829 -4 -1829 -9z"/>
<path d="M16705 10488 c12 -58 86 -790 110 -1098 28 -364 37 -918 32 -2133 -4
-1241 -4 -1234 -57 -1927 -32 -414 -64 -712 -86 -782 -5 -17 32 -18 680 -18
l686 0 0 28 c0 16 -25 226 -55 468 -105 835 -115 983 -115 1742 l0 562 1323 0
1324 0 6 -607 c12 -1074 -23 -1521 -158 -2041 -19 -72 -35 -137 -35 -142 0 -7
246 -10 710 -10 561 0 710 3 710 13 0 6 -13 86 -29 177 -59 333 -93 679 -111
1115 -21 521 -7 3133 20 3600 21 381 60 736 105 970 8 44 15 86 15 93 0 9
-144 12 -688 12 l-688 0 32 -287 c77 -685 96 -1027 92 -1638 l-3 -490 -1296
-3 -1297 -2 -7 147 c-10 181 0 894 15 1093 30 415 82 767 159 1068 l29 112
-714 0 -714 0 5 -22z"/>
<path d="M22721 10453 c36 -104 88 -337 108 -478 44 -306 45 -352 45 -2595 1
-2431 11 -2141 -89 -2586 -30 -133 -55 -247 -55 -253 0 -8 205 -11 700 -11
412 0 700 4 700 9 0 5 -11 85 -24 178 -13 92 -41 318 -61 502 -33 293 -35 339
-24 378 10 36 37 72 123 167 277 302 559 614 1187 1311 371 413 803 889 959
1060 l285 309 8 -1219 c12 -1624 10 -1674 -98 -2315 -25 -151 -49 -299 -54
-328 l-8 -52 704 0 c387 0 702 3 700 8 -9 14 -67 368 -86 527 -61 501 -72 800
-78 2170 -8 1877 16 2435 132 3107 14 79 25 149 25 156 0 9 -149 12 -710 12
l-710 0 5 -22 c26 -114 93 -532 124 -778 16 -121 18 -164 10 -197 -9 -33 -42
-75 -167 -210 -315 -340 -582 -635 -1238 -1363 -686 -763 -1160 -1283 -1172
-1287 -19 -7 -22 2346 -4 2587 34 440 86 785 168 1112 19 75 34 142 34 147 0
8 -226 11 -729 11 l-730 0 20 -57z"/>
<path d="M4820 9163 c-705 -1269 -1898 -2334 -3338 -2980 -347 -155 -844 -332
-1189 -424 l-163 -43 0 -574 0 -575 2376 6 c1307 3 2378 7 2380 10 2 2 3 1060
2 2350 l-3 2347 -65 -117z"/>
</g>
</svg>
