<?xml version="1.0" standalone="no"?>
<!DOCTYPE svg PUBLIC "-//W3C//DTD SVG 20010904//EN"
 "http://www.w3.org/TR/2001/REC-SVG-20010904/DTD/svg10.dtd">
<svg version="1.0" xmlns="http://www.w3.org/2000/svg"
 width="501.000000pt" height="180.000000pt" viewBox="0 0 501.000000 180.000000"
 preserveAspectRatio="xMidYMid meet">

<g transform="translate(0.000000,180.000000) scale(0.100000,-0.100000)"
fill="#000000" stroke="none">
<path d="M825 1251 c-32 -13 -55 -46 -62 -84 -4 -29 2 -49 32 -104 21 -37 48
-81 60 -98 12 -16 66 -106 119 -200 54 -93 107 -178 118 -187 33 -29 99 -24
131 10 51 53 44 73 -129 372 -117 203 -164 274 -185 285 -31 17 -54 18 -84 6z"/>
<path d="M1765 1128 c-2 -7 -9 -73 -15 -147 -12 -147 -24 -188 -64 -217 -23
-16 -26 -25 -21 -47 8 -32 26 -34 70 -7 47 29 72 96 85 226 5 60 10 117 10
127 0 14 10 17 70 17 l70 0 0 -190 0 -190 40 0 40 0 0 204 c0 112 -3 211 -6
220 -5 14 -27 16 -140 16 -99 0 -136 -3 -139 -12z"/>
<path d="M3194 1127 c-2 -7 -3 -105 -2 -217 l3 -205 110 -3 c89 -2 117 1 145
15 103 52 106 198 6 244 -28 13 -65 19 -113 19 l-73 0 0 50 0 50 105 0 105 0
0 30 0 30 -140 0 c-105 0 -142 -3 -146 -13z m236 -239 c26 -28 26 -58 -1 -92
-19 -24 -27 -26 -90 -26 l-69 0 0 70 0 70 70 0 c58 0 72 -3 90 -22z"/>
<path d="M2195 1022 c-45 -29 -63 -52 -76 -102 -25 -95 14 -194 86 -218 47
-16 118 -9 153 14 38 25 65 97 60 163 -8 104 -50 152 -140 158 -40 3 -60 -1
-83 -15z m120 -67 c21 -20 25 -34 25 -88 0 -66 -17 -98 -58 -111 -29 -10 -71
11 -82 39 -23 59 -4 164 32 178 30 12 60 5 83 -18z"/>
<path d="M2890 1022 c-99 -49 -110 -238 -17 -306 40 -29 135 -29 174 0 46 35
65 78 66 148 1 111 -53 176 -148 176 -22 0 -56 -8 -75 -18z m120 -62 c25 -25
34 -60 27 -117 -6 -55 -34 -86 -76 -86 -42 0 -69 27 -77 78 -15 105 65 186
126 125z"/>
<path d="M3642 1029 c-24 -7 -32 -14 -28 -25 3 -9 6 -20 6 -25 0 -7 26 -8 68
-3 74 7 102 -6 102 -47 0 -17 -7 -19 -64 -19 -80 0 -126 -27 -140 -83 -12 -47
0 -83 37 -111 24 -18 42 -21 110 -20 127 1 127 0 127 150 0 69 -5 134 -10 145
-24 44 -123 62 -208 38z m148 -219 c0 -48 -1 -49 -34 -56 -19 -3 -48 -2 -63 3
-23 8 -28 15 -28 44 0 40 28 59 88 59 l37 0 0 -50z"/>
<path d="M2480 865 l0 -165 40 0 40 0 0 75 c0 73 1 75 25 75 19 0 35 -16 75
-75 49 -72 52 -75 90 -75 22 0 40 2 40 5 0 2 -25 42 -55 89 l-54 84 49 71 c28
39 50 73 50 76 0 3 -18 5 -40 5 -37 0 -42 -4 -80 -60 -34 -51 -45 -60 -70 -60
-30 0 -30 0 -30 60 l0 60 -40 0 -40 0 0 -165z"/>
<path d="M3950 865 l0 -165 35 0 35 0 0 75 0 75 70 0 70 0 0 -75 0 -75 35 0
35 0 0 165 0 165 -35 0 -35 0 0 -60 0 -60 -70 0 -70 0 0 60 0 60 -35 0 -35 0
0 -165z"/>
<path d="M4320 865 l0 -165 35 0 35 0 0 75 0 75 28 0 c23 0 35 -12 76 -75 47
-72 50 -75 87 -75 22 0 39 3 39 8 0 4 -23 42 -50 85 -28 43 -50 80 -50 83 0 3
18 32 40 64 59 87 59 90 12 90 -38 0 -42 -3 -78 -60 -35 -53 -43 -60 -71 -60
l-33 0 0 60 0 60 -35 0 -35 0 0 -165z"/>
</g>
</svg>
