<?xml version="1.0" standalone="no"?>
<!DOCTYPE svg PUBLIC "-//W3C//DTD SVG 20010904//EN"
 "http://www.w3.org/TR/2001/REC-SVG-20010904/DTD/svg10.dtd">
<svg version="1.0" xmlns="http://www.w3.org/2000/svg"
 width="600.000000pt" height="258.000000pt" viewBox="0 0 600.000000 258.000000"
 preserveAspectRatio="xMidYMid meet">

<g transform="translate(0.000000,258.000000) scale(0.100000,-0.100000)"
fill="#000000" stroke="none">
<path d="M500 1575 l0 -505 100 0 99 0 3 128 3 127 135 3 135 3 73 72 72 71 0
230 0 230 -73 73 -73 73 -237 0 -237 0 0 -505z m410 125 l0 -180 -105 0 -105
0 0 180 0 180 105 0 105 0 0 -180z"/>
<path d="M1240 1575 l0 -505 100 0 100 0 0 405 0 405 130 0 130 0 0 100 0 100
-230 0 -230 0 0 -505z"/>
<path d="M1842 2007 l-72 -72 0 -360 0 -361 73 -72 72 -72 178 0 177 0 0 100
0 100 -150 0 -150 0 0 305 0 304 148 3 147 3 0 95 0 95 -175 3 -175 2 -73 -73z"/>
<path d="M2450 1575 l0 -505 237 0 238 0 72 72 73 72 0 181 0 181 -72 71 -73
72 -135 3 -135 3 -3 78 -3 77 191 0 190 0 0 100 0 100 -290 0 -290 0 0 -505z
m410 -175 l0 -130 -105 0 -105 0 0 130 0 130 105 0 105 0 0 -130z"/>
<path d="M3340 2073 c0 -5 -45 -226 -100 -491 -55 -266 -100 -490 -100 -498 0
-11 20 -14 98 -14 l98 0 23 120 23 120 133 0 133 0 23 -120 23 -120 103 0 104
0 -6 33 c-4 17 -50 243 -103 502 l-98 470 -177 3 c-97 1 -177 -1 -177 -5z
m230 -365 c18 -95 35 -180 38 -190 4 -16 -4 -18 -93 -18 -87 0 -96 2 -91 18 2
9 19 95 37 190 30 159 34 172 54 172 20 0 24 -13 55 -172z"/>
<path d="M3997 2073 c-4 -3 -7 -231 -7 -505 l0 -498 105 0 105 0 0 200 0 200
125 0 125 0 0 -200 0 -200 105 0 105 0 0 505 0 505 -105 0 -105 0 0 -205 0
-205 -125 0 -125 0 0 205 0 205 -98 0 c-54 0 -102 -3 -105 -7z"/>
<path d="M4810 1575 l0 -505 105 0 105 0 0 210 0 210 54 0 54 0 73 -210 74
-210 109 0 c82 0 107 3 104 13 -3 6 -44 122 -92 258 l-87 245 85 239 c47 131
86 242 86 247 0 4 -45 8 -100 8 -95 0 -101 -1 -110 -22 -6 -13 -39 -102 -73
-198 l-62 -175 -58 -3 -57 -3 0 201 0 200 -105 0 -105 0 0 -505z"/>
<path d="M3816 772 c-73 -25 -91 -55 -91 -154 0 -75 2 -81 28 -104 51 -43 128
-27 153 33 19 43 12 95 -17 124 -23 23 -85 26 -116 4 -22 -15 -22 -15 -11 15
11 32 42 53 96 65 18 3 32 13 32 21 0 18 -13 17 -74 -4z m52 -130 c17 -22 15
-73 -4 -100 -18 -26 -60 -29 -86 -5 -18 16 -25 77 -10 99 23 34 75 38 100 6z"/>
<path d="M500 640 l0 -140 69 0 c38 0 81 4 94 9 33 13 51 64 37 106 -13 39
-45 55 -110 55 l-50 0 0 40 0 40 65 0 c51 0 65 3 65 15 0 12 -16 15 -85 15
l-85 0 0 -140z m152 -17 c20 -18 23 -45 8 -74 -9 -15 -22 -19 -65 -19 l-55 0
0 55 0 55 47 0 c29 0 53 -6 65 -17z"/>
<path d="M778 699 c-19 -11 -25 -39 -8 -39 6 0 22 7 36 16 30 21 74 6 74 -25
0 -15 -10 -21 -42 -26 -77 -12 -108 -47 -89 -98 13 -34 66 -45 110 -23 17 9
31 12 31 6 0 -5 7 -10 16 -10 14 0 15 13 12 91 -2 76 -6 93 -22 105 -23 16
-93 18 -118 3z m102 -129 c0 -34 -26 -53 -68 -48 -20 2 -28 9 -30 27 -5 31 21
51 65 51 30 0 33 -3 33 -30z"/>
<path d="M980 605 c0 -87 3 -105 15 -105 11 0 15 12 15 45 l0 45 55 0 55 0 0
-45 c0 -39 3 -45 20 -45 20 0 21 5 18 102 -3 89 -5 103 -20 106 -15 3 -18 -4
-18 -42 l0 -46 -55 0 -55 0 0 45 c0 33 -4 45 -15 45 -12 0 -15 -18 -15 -105z"/>
<path d="M1217 703 c-4 -3 -7 -51 -7 -105 0 -91 1 -98 20 -98 17 0 20 7 20 45
0 62 28 62 67 0 16 -25 36 -45 46 -45 24 0 21 8 -16 60 l-33 44 20 38 c12 21
27 38 34 38 6 0 12 7 12 15 0 35 -46 11 -71 -36 -13 -26 -26 -39 -39 -39 -17
0 -20 7 -20 45 0 43 -14 58 -33 38z"/>
<path d="M1556 698 c-3 -7 -7 -37 -11 -66 -7 -63 -23 -102 -42 -102 -9 0 -13
-14 -13 -45 0 -33 4 -45 15 -45 10 0 15 10 15 30 l0 30 80 0 80 0 0 -30 c0
-20 5 -30 15 -30 11 0 15 12 15 45 0 25 -4 45 -10 45 -5 0 -11 39 -12 88 l-3
87 -63 3 c-44 2 -63 -1 -66 -10z m94 -93 l0 -75 -46 0 c-43 0 -46 1 -40 23 4
12 9 46 13 75 6 51 6 52 39 52 l34 0 0 -75z"/>
<path d="M1807 703 c-3 -5 -8 -39 -12 -77 -5 -53 -12 -74 -31 -93 -27 -27 -32
-48 -8 -39 9 3 20 6 25 6 16 0 40 60 47 118 l7 57 38 3 37 3 0 -90 c0 -74 3
-91 15 -91 12 0 15 18 15 105 l0 105 -64 0 c-36 0 -67 -3 -69 -7z"/>
<path d="M2030 697 c-31 -16 -40 -70 -15 -97 15 -16 15 -20 -4 -51 -25 -40
-26 -49 -6 -49 8 0 26 18 40 40 20 32 31 40 55 40 28 0 30 -2 30 -40 0 -29 4
-40 15 -40 12 0 15 18 15 105 l0 105 -52 0 c-29 0 -64 -6 -78 -13z m100 -53
c0 -35 0 -35 -41 -32 -79 6 -76 68 2 68 38 0 39 -1 39 -36z"/>
<path d="M2329 691 c-34 -27 -17 -37 27 -16 43 20 84 8 84 -24 0 -15 -10 -20
-51 -26 -60 -8 -89 -33 -89 -74 0 -34 31 -61 70 -61 14 0 36 7 48 16 12 8 22
10 22 5 0 -6 10 -11 21 -11 21 0 21 4 17 85 -5 103 -20 125 -83 125 -27 0 -51
-7 -66 -19z m111 -114 c0 -32 -32 -59 -66 -55 -70 8 -45 78 28 78 33 0 38 -3
38 -23z"/>
<path d="M2530 605 l0 -105 73 0 c59 0 77 4 90 18 21 23 22 56 2 72 -11 9 -12
16 -4 26 6 7 9 25 7 41 -4 36 -38 53 -110 53 l-58 0 0 -105z m130 60 c22 -27
4 -45 -45 -45 -43 0 -45 1 -45 30 0 28 2 30 39 30 22 0 44 -6 51 -15z m8 -106
c3 -28 -15 -39 -70 -39 -25 0 -28 3 -28 36 l0 35 48 -3 c42 -3 47 -6 50 -29z"/>
<path d="M2740 695 c0 -10 11 -15 35 -15 l35 0 0 -90 c0 -83 1 -90 20 -90 19
0 20 7 20 90 l0 90 35 0 c24 0 35 5 35 15 0 12 -17 15 -90 15 -73 0 -90 -3
-90 -15z"/>
<path d="M2976 685 c-52 -56 -41 -150 21 -183 83 -45 169 40 143 140 -13 47
-43 68 -98 68 -33 0 -48 -6 -66 -25z m120 -30 c21 -32 13 -103 -12 -122 -47
-34 -104 2 -104 65 0 53 23 82 65 82 26 0 39 -6 51 -25z"/>
<path d="M3200 605 c0 -87 3 -105 15 -105 12 0 15 15 15 73 l1 72 31 -72 c40
-95 54 -95 93 0 l30 72 3 -72 c2 -56 6 -73 17 -73 12 0 15 20 15 105 0 95 -2
105 -18 105 -13 0 -27 -21 -51 -80 -19 -44 -36 -82 -40 -84 -3 -2 -22 34 -40
80 -26 63 -39 84 -53 84 -16 0 -18 -10 -18 -105z"/>
<path d="M3513 695 c-40 -28 -51 -123 -20 -166 31 -42 99 -51 140 -19 50 40
54 144 6 183 -27 21 -97 23 -126 2z m113 -40 c21 -32 13 -103 -12 -122 -49
-36 -104 0 -104 67 0 51 24 80 65 80 26 0 39 -6 51 -25z"/>
<path d="M3970 604 c0 -95 2 -105 18 -102 9 2 40 36 67 77 l50 73 3 -76 c2
-59 6 -76 17 -76 12 0 15 20 15 106 0 95 -2 105 -17 102 -10 -2 -40 -36 -68
-77 l-50 -73 -3 76 c-2 59 -6 76 -17 76 -12 0 -15 -20 -15 -106z"/>
<path d="M4235 648 c-8 -79 -22 -116 -47 -124 -24 -7 -18 -30 8 -26 37 7 56
38 67 111 l11 71 33 0 33 0 0 -90 c0 -83 1 -90 20 -90 19 0 20 7 20 105 l0
105 -69 0 -69 0 -7 -62z"/>
<path d="M4437 703 c-4 -3 -7 -51 -7 -105 0 -90 1 -98 19 -98 13 0 38 26 73
76 l53 76 3 -76 c2 -59 6 -76 17 -76 12 0 15 20 15 106 0 95 -2 105 -17 102
-10 -2 -40 -36 -68 -77 l-50 -73 -3 76 c-2 54 -7 76 -16 76 -7 0 -16 -3 -19
-7z"/>
<path d="M4689 681 c-25 -25 -29 -37 -29 -81 0 -44 4 -56 29 -81 21 -21 39
-29 64 -29 40 0 87 33 87 61 0 27 -25 24 -38 -6 -14 -29 -61 -35 -86 -9 -18
18 -22 95 -6 125 15 27 75 26 90 -1 13 -23 40 -27 40 -5 0 29 -38 55 -81 55
-31 0 -47 -6 -70 -29z"/>
<path d="M4877 703 c-15 -14 -5 -22 31 -25 l37 -3 3 -87 c2 -69 6 -88 17 -88
12 0 15 18 15 90 l0 90 35 0 c24 0 35 5 35 15 0 12 -16 15 -83 15 -46 0 -87
-3 -90 -7z"/>
<path d="M5114 687 c-58 -51 -35 -176 35 -192 78 -17 131 29 131 113 0 88
-100 136 -166 79z m116 -26 c16 -31 12 -102 -7 -123 -20 -22 -61 -23 -85 -1
-23 21 -25 104 -2 127 22 23 81 21 94 -3z"/>
<path d="M5330 605 l0 -105 73 0 c59 0 77 4 90 18 21 23 21 42 3 68 -10 13
-11 23 -4 31 5 6 8 24 6 40 -4 36 -38 53 -110 53 l-58 0 0 -105z m129 61 c22
-26 2 -46 -45 -46 -42 0 -44 1 -44 30 0 28 2 30 39 30 21 0 44 -6 50 -14z m9
-107 c3 -28 -15 -39 -70 -39 -25 0 -28 3 -28 36 l0 35 48 -3 c42 -3 47 -6 50
-29z"/>
</g>
</svg>
