<?xml version="1.0" standalone="no"?>
<!DOCTYPE svg PUBLIC "-//W3C//DTD SVG 20010904//EN"
 "http://www.w3.org/TR/2001/REC-SVG-20010904/DTD/svg10.dtd">
<svg version="1.0" xmlns="http://www.w3.org/2000/svg"
 width="2297.000000pt" height="755.000000pt" viewBox="0 0 2297.000000 755.000000"
 preserveAspectRatio="xMidYMid meet">

<g transform="translate(0.000000,755.000000) scale(0.100000,-0.100000)"
fill="#000000" stroke="none">
<path d="M2885 5588 c-244 -17 -464 -93 -679 -235 -120 -79 -305 -259 -384
-375 -106 -155 -191 -358 -229 -545 -25 -123 -25 -413 0 -536 71 -352 269
-666 557 -883 96 -73 286 -171 403 -208 300 -97 653 -90 937 17 237 89 506
281 566 403 105 216 -103 455 -328 378 -26 -8 -72 -38 -104 -66 -139 -121
-259 -189 -409 -229 -114 -31 -326 -31 -440 0 -497 134 -774 650 -613 1138 75
226 246 419 463 519 130 60 211 77 370 77 112 0 156 -5 220 -22 144 -38 261
-103 385 -211 82 -72 119 -91 190 -97 203 -19 355 195 272 380 -44 99 -243
258 -447 358 -230 112 -464 156 -730 137z"/>
<path d="M5644 5589 c-487 -35 -942 -347 -1159 -794 -102 -209 -135 -342 -142
-580 -3 -125 -1 -196 11 -270 92 -602 525 -1056 1124 -1180 185 -38 461 -36
665 6 212 42 509 162 604 244 115 98 125 263 22 367 -56 56 -133 84 -202 73
-23 -4 -107 -37 -187 -75 -251 -119 -389 -155 -595 -154 -331 0 -607 142 -774
396 -43 66 -94 186 -106 250 l-7 38 973 2 974 3 57 28 c75 37 159 128 189 204
18 47 22 78 22 158 0 235 -69 458 -208 672 -74 114 -259 298 -379 377 -271
179 -568 258 -882 235z m317 -498 c203 -52 400 -202 528 -401 37 -58 94 -193
106 -247 l7 -33 -851 0 c-829 0 -851 0 -851 19 0 29 40 151 67 206 122 243
388 433 668 475 86 13 237 4 326 -19z"/>
<path d="M10685 5589 c-784 -61 -1377 -765 -1305 -1548 47 -509 327 -928 769
-1151 426 -214 1004 -202 1472 30 153 76 191 106 229 184 29 59 32 73 27 126
-10 110 -82 195 -187 220 -71 17 -105 8 -270 -69 -253 -120 -383 -154 -590
-155 -138 0 -206 10 -320 46 -271 87 -486 305 -559 567 l-20 71 977 2 977 3
58 29 c71 36 140 108 175 184 23 48 28 73 30 163 16 492 -315 972 -823 1192
-111 48 -287 94 -392 102 -43 3 -94 7 -113 9 -19 1 -80 -1 -135 -5z m305 -495
c199 -50 394 -193 518 -377 51 -78 105 -194 120 -265 l10 -42 -854 0 -854 0 6
28 c80 346 348 598 711 667 94 18 250 13 343 -11z"/>
<path d="M13139 5590 c-87 -15 -156 -67 -196 -148 l-28 -57 -5 -830 c-5 -776
-6 -833 -24 -880 -56 -152 -181 -278 -326 -330 -25 -9 -96 -22 -158 -30 -86
-10 -122 -19 -156 -39 -187 -109 -177 -374 16 -470 45 -22 65 -26 144 -26 466
0 883 333 1015 810 23 85 23 87 27 778 l3 692 554 0 555 0 0 -1022 c0 -666 4
-1036 10 -1060 17 -59 71 -130 124 -163 40 -24 62 -30 123 -33 64 -4 80 -1
128 23 30 14 70 44 89 67 70 81 66 3 66 1313 0 1318 5 1233 -70 1318 -23 25
-62 54 -92 68 l-53 24 -850 1 c-467 1 -871 -2 -896 -6z"/>
<path d="M16825 5588 c-337 -24 -643 -166 -891 -413 -306 -305 -455 -712 -415
-1135 47 -504 319 -918 749 -1138 246 -127 527 -182 817 -162 245 18 459 76
680 184 178 88 238 151 252 265 18 158 -146 301 -298 261 -24 -7 -102 -40
-174 -75 -225 -110 -377 -148 -580 -149 -173 0 -303 28 -440 97 -135 67 -275
193 -349 315 -34 57 -84 178 -100 244 l-6 28 973 2 972 3 67 33 c77 38 134 97
175 180 52 106 40 336 -27 543 -131 398 -468 723 -893 858 -169 54 -330 73
-512 59z m225 -478 c36 -6 99 -22 140 -35 232 -76 464 -304 548 -539 18 -48
32 -96 32 -107 0 -19 -14 -19 -851 -19 l-851 0 7 33 c88 423 544 735 975 667z"/>
<path d="M18850 5570 c-55 -26 -105 -72 -133 -125 l-22 -40 0 -1220 c0 -1148
1 -1222 18 -1252 54 -100 140 -153 247 -153 108 1 197 58 244 159 21 45 21 55
24 830 l3 783 379 -475 c208 -261 394 -487 413 -501 83 -64 193 -71 287 -20
45 25 95 83 423 497 l372 469 5 -774 5 -773 23 -47 c66 -133 233 -188 363
-120 31 16 68 46 86 71 67 87 64 24 61 1317 l-3 1169 -27 50 c-51 97 -134 149
-238 148 -72 0 -118 -16 -168 -58 -18 -15 -256 -308 -528 -651 -272 -343 -499
-624 -503 -624 -4 0 -241 293 -526 650 -582 731 -554 703 -685 708 -59 2 -84
-2 -120 -18z"/>
<path d="M7240 5559 c-55 -25 -105 -71 -133 -124 -29 -53 -31 -183 -4 -232 30
-57 80 -105 132 -129 49 -23 55 -24 392 -24 l343 0 2 -1037 3 -1038 27 -51
c50 -94 132 -144 238 -144 107 0 192 53 240 147 l25 48 3 1038 2 1037 348 0
348 0 52 26 c202 100 200 386 -3 480 l-50 24 -960 0 c-944 0 -961 -1 -1005
-21z"/>
<path d="M1894 2286 c-86 -38 -154 -139 -154 -231 0 -93 69 -195 156 -231 28
-12 209 -14 1043 -14 l1009 0 53 28 c179 93 179 341 0 434 l-53 28 -1012 0
c-822 -1 -1017 -3 -1042 -14z"/>
</g>
</svg>
