<?xml version="1.0" standalone="no"?>
<!DOCTYPE svg PUBLIC "-//W3C//DTD SVG 20010904//EN"
 "http://www.w3.org/TR/2001/REC-SVG-20010904/DTD/svg10.dtd">
<svg version="1.0" xmlns="http://www.w3.org/2000/svg"
 width="1020.000000pt" height="573.000000pt" viewBox="0 0 1020.000000 573.000000"
 preserveAspectRatio="xMidYMid meet">

<g transform="translate(0.000000,573.000000) scale(0.100000,-0.100000)"
fill="#000000" stroke="none">
<path d="M1678 3398 l-3 -273 -22 -3 -23 -3 0 160 c0 154 -1 161 -20 161 -18
0 -20 -7 -21 -77 -1 -43 -4 -116 -7 -163 l-7 -84 -66 -26 c-182 -69 -305 -211
-344 -395 -39 -187 12 -354 151 -493 l76 -77 25 30 c92 113 176 402 199 682
l7 86 -24 -6 c-13 -4 -29 -7 -35 -7 -6 0 -16 -26 -23 -57 -42 -197 -152 -426
-246 -513 l-26 -25 -19 25 c-58 77 -66 248 -18 352 91 196 351 308 585 253
154 -36 278 -129 336 -252 29 -61 32 -77 32 -158 0 -81 -3 -97 -33 -159 -37
-79 -35 -80 -111 23 -87 119 -147 251 -187 416 -20 85 -23 90 -53 99 -17 5
-33 7 -36 5 -9 -9 27 -278 51 -388 40 -176 116 -354 166 -385 38 -23 171 129
219 251 27 70 37 222 20 304 -38 182 -189 346 -367 399 l-41 12 -7 61 c-3 33
-6 107 -6 163 0 97 -1 104 -20 104 -19 0 -20 -7 -20 -161 l0 -160 -22 3 -23 3
-3 273 c-2 231 -5 272 -17 272 -12 0 -15 -41 -17 -272z"/>
<path d="M7020 2580 c0 -358 2 -410 15 -410 13 0 15 52 15 410 0 358 -2 410
-15 410 -13 0 -15 -52 -15 -410z"/>
<path d="M1656 2773 c-14 -315 -52 -532 -120 -685 -13 -28 36 -41 154 -40 104
0 167 11 163 28 -1 5 -13 36 -27 69 -46 111 -82 350 -101 663 l-7 112 -28 0
-27 0 -7 -147z"/>
<path d="M2544 2818 c14 -24 63 -110 109 -193 l84 -149 -43 -74 c-24 -41 -44
-76 -44 -78 0 -2 42 -4 93 -4 92 0 94 1 108 27 8 15 73 137 145 270 l132 243
-94 0 -94 0 -56 -112 -57 -113 -56 113 -56 112 -98 0 -98 0 25 -42z"/>
<path d="M3150 2591 l0 -271 85 0 85 0 0 79 0 79 128 3 c106 3 133 7 162 25
53 31 80 86 80 165 0 81 -19 130 -62 161 -32 22 -41 23 -255 26 l-223 3 0
-270z m354 123 c20 -19 20 -54 2 -80 -12 -16 -29 -20 -100 -23 l-86 -3 0 61 0
61 84 0 c64 0 88 -4 100 -16z"/>
<path d="M3724 2599 c-60 -144 -111 -266 -112 -271 -2 -5 36 -8 88 -6 l92 3
22 55 22 55 98 0 98 0 22 -55 22 -55 146 -3 145 -3 41 113 c22 62 53 148 67
191 15 42 31 77 36 77 4 0 11 -10 15 -22 3 -13 33 -98 66 -190 l60 -168 89 0
c49 0 89 3 89 8 0 4 -50 125 -112 270 l-112 263 -98 -3 -99 -3 -90 -215 c-50
-118 -93 -217 -95 -219 -4 -5 -11 11 -115 261 l-74 178 -101 0 -100 0 -110
-261z m266 -36 c0 -2 -25 -3 -56 -3 -63 0 -61 -8 -21 99 l20 55 28 -74 c16
-41 29 -76 29 -77z"/>
<path d="M4938 2846 c-76 -40 -111 -86 -134 -177 -28 -110 5 -232 78 -290 58
-47 113 -59 260 -59 l128 0 0 69 0 69 -125 4 c-114 3 -126 5 -147 26 -20 20
-23 33 -23 102 0 74 2 82 28 107 26 27 32 28 147 31 l120 4 0 64 0 64 -152 0
c-113 0 -160 -4 -180 -14z"/>
<path d="M5308 2590 l3 -270 98 0 c67 0 102 4 108 13 10 12 32 52 139 252 l59
110 5 -185 5 -185 85 0 85 0 3 268 2 268 -111 -3 -111 -3 -27 -50 c-14 -27
-58 -108 -96 -180 l-70 -130 -3 183 -2 182 -88 0 -87 0 3 -270z"/>
<path d="M5932 2593 l3 -268 215 0 c234 0 254 4 299 61 17 22 21 41 21 101 0
141 -32 165 -227 171 l-133 4 0 34 0 34 170 0 170 0 0 65 0 65 -260 0 -260 0
2 -267z m364 -78 c4 -8 3 -26 0 -40 -6 -24 -9 -25 -96 -25 l-90 0 0 40 0 40
90 0 c71 0 92 -3 96 -15z"/>
<path d="M7600 2595 l0 -205 90 0 c140 0 200 37 200 125 0 77 -61 125 -160
125 l-50 0 0 45 0 45 90 0 90 0 0 35 0 35 -130 0 -130 0 0 -205z m185 -40 c30
-29 31 -45 7 -75 -12 -15 -33 -24 -65 -27 l-47 -6 0 67 0 66 40 0 c30 0 47 -7
65 -25z"/>
<path d="M8025 2608 c-42 -106 -79 -199 -82 -205 -4 -9 8 -13 39 -13 43 0 44
1 59 43 l16 42 88 0 88 0 15 -42 c13 -42 15 -43 58 -43 24 0 44 3 44 8 0 4
-35 95 -78 202 l-78 195 -46 3 -46 3 -77 -193z m150 26 c14 -38 25 -72 25 -76
0 -5 -25 -8 -55 -8 -30 0 -55 4 -55 9 0 4 11 39 25 77 14 38 25 71 25 73 0 14
13 -14 35 -75z"/>
<path d="M8410 2595 l0 -205 40 0 40 0 0 90 0 90 80 0 79 0 3 -87 3 -88 38 -3
37 -3 0 206 0 206 -37 -3 -38 -3 -3 -82 -3 -83 -79 0 -80 0 0 85 0 85 -40 0
-40 0 0 -205z"/>
<path d="M8820 2595 l0 -205 40 0 39 0 3 101 3 100 75 -100 74 -101 48 0 c26
0 48 3 48 6 0 3 -39 52 -86 110 -97 120 -98 98 6 207 36 38 67 72 68 78 2 5
-17 9 -42 9 -44 0 -46 -1 -118 -86 l-73 -86 -3 86 -3 86 -39 0 -40 0 0 -205z"/>
</g>
</svg>
