<?xml version="1.0" standalone="no"?>
<!DOCTYPE svg PUBLIC "-//W3C//DTD SVG 20010904//EN"
 "http://www.w3.org/TR/2001/REC-SVG-20010904/DTD/svg10.dtd">
<svg version="1.0" xmlns="http://www.w3.org/2000/svg"
 width="228.000000pt" height="120.000000pt" viewBox="0 0 228.000000 120.000000"
 preserveAspectRatio="xMidYMid meet">

<g transform="translate(0.000000,120.000000) scale(0.100000,-0.100000)"
fill="#000000" stroke="none">
<path d="M586 709 c-14 -11 -26 -24 -26 -29 0 -17 31 -19 59 -2 35 20 75 10
99 -25 14 -23 14 -23 -43 -23 -48 0 -56 -2 -53 -17 2 -14 16 -19 57 -23 l53
-5 -19 -24 c-23 -28 -68 -32 -108 -11 -19 10 -28 11 -37 2 -16 -16 6 -39 52
-53 80 -24 150 30 150 116 0 22 -7 51 -16 63 -36 52 -121 68 -168 31z"/>
<path d="M1621 706 c-67 -41 -91 -71 -91 -114 0 -54 7 -70 41 -87 42 -22 67
-18 101 15 24 25 29 36 24 58 -10 41 -44 65 -83 59 -18 -3 -33 -4 -33 -2 0 3
23 16 50 30 48 24 64 48 38 57 -7 3 -28 -5 -47 -16z m23 -112 c19 -18 19 -20
6 -45 -19 -34 -80 -19 -80 21 0 38 46 53 74 24z"/>
<path d="M810 580 c0 -73 2 -80 20 -80 16 0 20 7 20 33 l1 32 28 -32 c16 -19
37 -33 50 -33 22 0 22 1 -9 41 -32 40 -32 40 -13 62 46 53 47 57 21 57 -17 0
-33 -12 -51 -37 l-27 -38 0 38 c0 30 -4 37 -20 37 -18 0 -20 -7 -20 -80z"/>
<path d="M985 635 c-35 -34 -33 -78 4 -116 16 -16 39 -29 51 -29 25 0 80 27
80 39 0 15 -32 22 -46 10 -22 -18 -63 -2 -70 28 -10 37 26 66 63 52 15 -5 33
-7 41 -4 12 5 12 9 -3 25 -27 29 -89 27 -120 -5z"/>
<path d="M1150 580 c0 -73 2 -80 20 -80 18 0 20 7 20 60 l0 60 35 0 35 0 0
-60 c0 -53 2 -60 20 -60 18 0 20 7 20 80 l0 80 -75 0 -75 0 0 -80z"/>
<path d="M1355 635 c-35 -34 -33 -78 4 -116 31 -31 59 -36 94 -17 33 17 46 39
47 79 0 73 -92 108 -145 54z m97 -29 c13 -18 9 -53 -7 -66 -23 -19 -64 -4 -71
27 -12 46 52 78 78 39z"/>
<path d="M1742 637 c-52 -55 -8 -156 61 -143 18 4 44 6 60 6 l27 0 0 80 c0 73
-2 80 -20 80 -11 0 -20 -5 -20 -12 0 -9 -3 -9 -12 0 -20 20 -72 14 -96 -11z
m90 -24 c34 -31 17 -83 -27 -83 -60 0 -60 98 -1 100 5 0 18 -7 28 -17z"/>
<path d="M1930 580 c0 -73 2 -80 20 -80 16 0 20 7 20 30 0 28 3 30 35 30 32 0
35 -2 35 -30 0 -23 4 -30 20 -30 18 0 20 7 20 80 0 73 -2 80 -20 80 -16 0 -20
-7 -20 -30 0 -28 -3 -30 -35 -30 -32 0 -35 2 -35 30 0 23 -4 30 -20 30 -18 0
-20 -7 -20 -80z"/>
<path d="M2120 580 c0 -73 2 -80 20 -80 16 0 20 7 20 38 l1 37 32 -38 c20 -23
41 -37 56 -37 23 0 23 0 -8 35 -17 20 -31 39 -31 43 0 4 14 24 31 45 30 37 30
37 7 37 -14 0 -35 -14 -55 -37 l-32 -38 -1 38 c0 30 -4 37 -20 37 -18 0 -20
-7 -20 -80z"/>
</g>
</svg>
